<svg xmlns="http://www.w3.org/2000/svg" width="13" height="10" viewBox="0 0 13 10" fill="none">
<path d="M6.293 0.29297C6.10553 0.480497 6.00021 0.734805 6.00021 0.999969C6.00021 1.26513 6.10553 1.51944 6.293 1.70697L8.586 3.99997H1C0.734784 3.99997 0.48043 4.10533 0.292893 4.29286C0.105357 4.4804 0 4.73475 0 4.99997C0 5.26519 0.105357 5.51954 0.292893 5.70708C0.48043 5.89461 0.734784 5.99997 1 5.99997H8.586L6.293 8.29297C6.10549 8.48048 6.00015 8.73479 6.00015 8.99997C6.00015 9.26515 6.10549 9.51946 6.293 9.70697C6.48051 9.89448 6.73482 9.99982 7 9.99982C7.26518 9.99982 7.51949 9.89448 7.707 9.70697L12.414 4.99997L7.707 0.29297C7.51947 0.105499 7.26516 0.000183105 7 0.000183105C6.73484 0.000183105 6.48053 0.105499 6.293 0.29297Z" fill="#F9FAFB"/>
</svg>