<svg xmlns="http://www.w3.org/2000/svg" width="32" height="33" viewBox="0 0 32 33" fill="none">
<path d="M9.28 0.479004H22.72C27.84 0.479004 32 4.639 32 9.759V23.199C32 25.6602 31.0223 28.0206 29.282 29.761C27.5416 31.5013 25.1812 32.479 22.72 32.479H9.28C4.16 32.479 0 28.319 0 23.199V9.759C0 7.2978 0.977712 4.93739 2.71805 3.19705C4.45839 1.45672 6.81879 0.479004 9.28 0.479004ZM8.96 3.679C7.43235 3.679 5.96727 4.28586 4.88707 5.36607C3.80686 6.44628 3.2 7.91136 3.2 9.439V23.519C3.2 26.703 5.776 29.279 8.96 29.279H23.04C24.5676 29.279 26.0327 28.6721 27.1129 27.5919C28.1931 26.5117 28.8 25.0466 28.8 23.519V9.439C28.8 6.255 26.224 3.679 23.04 3.679H8.96ZM24.4 6.079C24.9304 6.079 25.4391 6.28972 25.8142 6.66479C26.1893 7.03986 26.4 7.54857 26.4 8.079C26.4 8.60944 26.1893 9.11814 25.8142 9.49322C25.4391 9.86829 24.9304 10.079 24.4 10.079C23.8696 10.079 23.3609 9.86829 22.9858 9.49322C22.6107 9.11814 22.4 8.60944 22.4 8.079C22.4 7.54857 22.6107 7.03986 22.9858 6.66479C23.3609 6.28972 23.8696 6.079 24.4 6.079ZM16 8.479C18.1217 8.479 20.1566 9.32186 21.6569 10.8222C23.1571 12.3224 24 14.3573 24 16.479C24 18.6007 23.1571 20.6356 21.6569 22.1359C20.1566 23.6362 18.1217 24.479 16 24.479C13.8783 24.479 11.8434 23.6362 10.3431 22.1359C8.84285 20.6356 8 18.6007 8 16.479C8 14.3573 8.84285 12.3224 10.3431 10.8222C11.8434 9.32186 13.8783 8.479 16 8.479ZM16 11.679C14.727 11.679 13.5061 12.1847 12.6059 13.0849C11.7057 13.9851 11.2 15.206 11.2 16.479C11.2 17.752 11.7057 18.9729 12.6059 19.8731C13.5061 20.7733 14.727 21.279 16 21.279C17.273 21.279 18.4939 20.7733 19.3941 19.8731C20.2943 18.9729 20.8 17.752 20.8 16.479C20.8 15.206 20.2943 13.9851 19.3941 13.0849C18.4939 12.1847 17.273 11.679 16 11.679Z" fill="black"/>
</svg>