<svg xmlns="http://www.w3.org/2000/svg" width="32" height="25" viewBox="0 0 32 25" fill="none">
  <path d="M12.8 17.6219L21.104 12.479L12.8 7.33615V17.6219ZM31.296 4.199C31.504 5.00472 31.648 6.08472 31.744 7.45615C31.856 8.82757 31.904 10.0104 31.904 11.039L32 12.479C32 16.2333 31.744 18.9933 31.296 20.759C30.896 22.3019 29.968 23.2961 28.528 23.7247C27.776 23.9476 26.4 24.1019 24.288 24.2047C22.208 24.3247 20.304 24.3761 18.544 24.3761L16 24.479C9.296 24.479 5.12 24.2047 3.472 23.7247C2.032 23.2961 1.104 22.3019 0.704 20.759C0.496 19.9533 0.352 18.8733 0.256 17.5019C0.144 16.1304 0.0959999 14.9476 0.0959999 13.919L0 12.479C0 8.72472 0.256 5.96472 0.704 4.199C1.104 2.65615 2.032 1.66186 3.472 1.23329C4.224 1.01043 5.6 0.856147 7.712 0.753289C9.792 0.633289 11.696 0.581861 13.456 0.581861L16 0.479004C22.704 0.479004 26.88 0.75329 28.528 1.23329C29.968 1.66186 30.896 2.65615 31.296 4.199Z" fill="black"/>
</svg>