<svg xmlns="http://www.w3.org/2000/svg" width="118" height="75" viewBox="0 0 118 75" fill="none">
<path d="M5.40046 65.0748L3.40781 67.15V70.8941H0V56.0762H3.40781V62.9997L9.96959 56.0762H13.7835L7.6406 62.6824L14.1389 70.8941H10.1409L5.40046 65.0748Z" fill="#323131"/>
<path d="M19.4902 59.4178C21.2544 59.4178 22.6077 59.8398 23.5516 60.6806C24.4988 61.5183 24.9732 62.7843 24.9732 64.4755V70.9739H21.8826V69.5523C21.2607 70.6153 20.1026 71.1452 18.4114 71.1452C17.5356 71.1452 16.7757 70.9961 16.1332 70.701C15.4938 70.4059 15.0036 69.9966 14.6609 69.4762C14.3214 68.9526 14.1532 68.3577 14.1532 67.693C14.1532 66.6363 14.5498 65.805 15.3462 65.199C16.1458 64.5898 17.3786 64.2851 19.046 64.2851H21.6732C21.6732 63.5665 21.4527 63.0128 21.0132 62.6225C20.577 62.2338 19.9217 62.0387 19.046 62.0387C18.4399 62.0387 17.8434 62.1339 17.2564 62.3242C16.6726 62.5146 16.1744 62.7732 15.7651 63.0984L14.5784 60.7885C15.2003 60.3538 15.9444 60.0175 16.8122 59.7795C17.6784 59.5383 18.5716 59.4178 19.4902 59.4178ZM19.2364 68.9177C19.8027 68.9177 20.3041 68.7892 20.7404 68.5306C21.1751 68.2689 21.486 67.8833 21.6732 67.3757V66.208H19.4077C18.0528 66.208 17.377 66.6554 17.377 67.547C17.377 67.9706 17.542 68.3054 17.872 68.5497C18.202 68.7956 18.6557 68.9177 19.2364 68.9177Z" fill="#323131"/>
<path d="M43.0828 59.338C44.5075 59.338 45.6402 59.76 46.4779 60.6009C47.3188 61.4386 47.7408 62.6982 47.7408 64.3768V70.8941H44.4345V64.8844C44.4345 63.9801 44.2457 63.3043 43.8697 62.8601C43.4969 62.4158 42.9654 62.1937 42.2768 62.1937C41.4979 62.1937 40.8823 62.446 40.4302 62.9489C39.9812 63.4487 39.7575 64.1911 39.7575 65.1764V70.8941H36.4576V64.8844C36.4576 63.0917 35.7357 62.1937 34.2936 62.1937C33.532 62.1937 32.9244 62.446 32.4723 62.9489C32.0233 63.4487 31.7996 64.1911 31.7996 65.1764V70.8941H28.4933V59.503H31.6473V60.8166C32.0693 60.3391 32.5881 59.9726 33.202 59.7188C33.8192 59.4649 34.4935 59.338 35.2264 59.338C36.0292 59.338 36.7558 59.4967 37.4031 59.814C38.0536 60.1313 38.5787 60.593 38.9769 61.1974C39.4418 60.6056 40.0304 60.1487 40.7411 59.8267C41.455 59.5014 42.2356 59.338 43.0828 59.338Z" fill="#323131"/>
<path d="M57.4341 59.338C58.4907 59.338 59.4537 59.5823 60.3215 60.0678C61.1925 60.5549 61.8731 61.2402 62.3649 62.1239C62.8599 63.0044 63.1074 64.0309 63.1074 65.2017C63.1074 66.3742 62.8599 67.4022 62.3649 68.2859C61.8731 69.1664 61.1925 69.8502 60.3215 70.3357C59.4537 70.8227 58.4907 71.0655 57.4341 71.0655C55.9776 71.0655 54.8354 70.607 54.0072 69.6884V75H50.7009V59.503H53.8549V60.8166C54.6751 59.8314 55.8682 59.338 57.4341 59.338ZM56.8629 68.3557C57.7085 68.3557 58.4018 68.0701 58.9444 67.499C59.4902 66.9247 59.763 66.1584 59.763 65.2017C59.763 64.2419 59.4902 63.4756 58.9444 62.9045C58.4018 62.3333 57.7085 62.0478 56.8629 62.0478C56.0157 62.0478 55.3208 62.3333 54.7751 62.9045C54.2325 63.4756 53.9628 64.2419 53.9628 65.2017C53.9628 66.1584 54.2325 66.9247 54.7751 67.499C55.3208 68.0701 56.0157 68.3557 56.8629 68.3557Z" fill="#323131"/>
<path d="M79.79 56.0762L73.3742 70.8941H69.9854L63.595 56.0762H67.3011L71.8067 66.6613L76.3822 56.0762H79.79Z" fill="#323131"/>
<path d="M92.5751 59.503V70.8941H89.4465V69.5361C89.0054 70.0311 88.4819 70.4102 87.8727 70.672C87.2666 70.9338 86.6114 71.0655 85.9054 71.0655C84.4109 71.0655 83.2274 70.6371 82.3517 69.7772C81.4759 68.9142 81.038 67.6354 81.038 65.9379V59.503H84.3443V65.4556C84.3443 67.288 85.1122 68.2034 86.6479 68.2034C87.438 68.2034 88.0726 67.948 88.5517 67.4355C89.034 66.9199 89.2752 66.1536 89.2752 65.1383V59.503H92.5751Z" fill="#323131"/>
<path d="M107.119 59.503V70.8941H103.99V69.5361C103.549 70.0311 103.026 70.4102 102.417 70.672C101.811 70.9338 101.155 71.0655 100.449 71.0655C98.9549 71.0655 97.7714 70.6371 96.8956 69.7772C96.0199 68.9142 95.582 67.6354 95.582 65.9379V59.503H98.8883V65.4556C98.8883 67.288 99.6561 68.2034 101.192 68.2034C101.982 68.2034 102.617 67.948 103.096 67.4355C103.578 66.9199 103.819 66.1536 103.819 65.1383V59.503H107.119Z" fill="#323131"/>
<path d="M113.343 61.007C113.74 60.4581 114.273 60.0424 114.943 59.7632C115.615 59.4808 116.386 59.338 117.259 59.338V62.3841C116.894 62.3556 116.65 62.3397 116.523 62.3397C115.574 62.3397 114.832 62.6046 114.295 63.1329C113.762 63.6628 113.496 64.4577 113.496 65.519V70.8941H110.189V59.503H113.343V61.007Z" fill="#323131"/>
<mask id="mask0_39_403" style="mask-type:luminance" maskUnits="userSpaceOnUse" x="39" y="0" width="38" height="52">
<path d="M39.5627 0H76.4203V51.4789H39.5627V0Z" fill="white"/>
</mask>
<g mask="url(#mask0_39_403)">
<path fill-rule="evenodd" clip-rule="evenodd" d="M59.375 45.3931L67.2313 41.9979L72.6381 43.283C73.7376 43.6844 74.5768 44.595 74.8846 45.7278C75.267 47.1303 74.7688 48.6327 73.6218 49.5275C72.6984 50.2493 71.4816 50.4778 70.3615 50.1431L59.375 45.3931ZM58.0137 39.8086L70.6851 36.799L70.8025 36.772C71.3657 36.6625 71.9305 36.9893 72.1193 37.5335C72.3208 38.1142 72.0337 38.744 71.472 38.9868L68.9194 40.091L65.4719 41.5807L51.7343 47.5206L45.6644 50.1431C44.5443 50.4778 43.3275 50.2493 42.4041 49.5291C41.2571 48.6343 40.7573 47.1303 41.1413 45.7278C41.449 44.5966 42.2883 43.6844 43.3877 43.283L57.5536 39.918L48.8945 40.8636L44.5538 38.9868C43.9922 38.744 43.705 38.1142 43.9065 37.5335C44.0953 36.9893 44.6601 36.6625 45.2249 36.772L45.3423 36.799L55.6752 39.2533L58.0137 39.8086ZM44.2286 45.0171C59.7287 40.5241 67.4788 38.2776 67.4788 38.2776C67.4788 38.2776 59.6367 40.2687 43.9525 44.2508C43.2989 44.5094 42.8134 45.0694 42.6484 45.7516C42.4834 46.4338 42.6611 47.1541 43.1244 47.6824C42.7135 46.6416 43.2021 45.4629 44.2286 45.0171ZM59.4701 6.3714C61.5262 11.2277 63.5522 16.6408 65.5449 22.6077C64.4169 16.901 62.3655 11.4165 59.4701 6.3714ZM46.7115 23.3803C45.2043 25.9219 44.1556 29.3107 43.5638 33.5419C43.3973 29.8913 44.511 26.2979 46.7115 23.3803ZM74.3103 32.4757C74.3103 27.4862 72.0686 23.0218 68.5386 20.0328C68.8496 21.9858 68.7464 23.815 68.2276 25.5205C67.7612 23.2724 67.0885 20.8927 66.2096 18.3876C64.282 12.8808 61.3628 6.75216 57.4505 0C57.3918 6.40313 56.0623 12.0098 53.4636 16.8217C52.4499 18.6954 51.2457 20.45 49.848 22.0826C50.205 20.6325 50.4889 19.2395 50.6968 17.9085C51.2695 14.242 51.2727 11.0278 50.7079 8.2641C50.0352 12.7444 47.9902 17.7435 44.5713 23.2582C44.3539 23.6088 44.1302 23.961 43.9034 24.3148C42.512 26.7151 41.7156 29.5026 41.7156 32.4742C41.7156 34.5398 42.0995 36.515 42.8007 38.3331C43.2862 39.5928 43.924 40.7763 44.6887 41.8615L44.0176 42.0217L43.0816 42.2438C41.641 42.7468 40.5114 43.9319 40.0989 45.4422C39.6023 47.2699 40.2481 49.2149 41.741 50.381C42.9737 51.344 44.5856 51.6169 46.0404 51.16L46.9272 50.7745L53.2193 48.0552C54.7344 48.5216 56.3447 48.7723 58.0153 48.7723C58.853 48.7723 59.6748 48.7089 60.4792 48.5883L65.4116 50.8792L61.6912 48.3566L58.0915 45.9166L62.8113 48.0552L69.1018 50.7761L69.9887 51.16C71.4435 51.6169 73.0554 51.344 74.2897 50.381C75.781 49.2149 76.4283 47.2699 75.9301 45.4422C75.5176 43.9319 74.388 42.7468 72.9475 42.2438L72.0115 42.0217L71.3404 41.8615C72.113 40.7668 72.746 39.5833 73.2283 38.3331C73.9248 36.5166 74.3103 34.5414 74.3103 32.4757Z" fill="#DF5457"/>
<path fill-rule="evenodd" clip-rule="evenodd" d="M59.375 45.3931L67.2313 41.9979L72.6381 43.283C73.7376 43.6844 74.5768 44.595 74.8846 45.7278C75.267 47.1303 74.7688 48.6327 73.6218 49.5275C72.6984 50.2493 71.4816 50.4778 70.3615 50.1431L59.375 45.3931ZM58.0137 39.8086L70.6851 36.799L70.8025 36.772C71.3657 36.6625 71.9305 36.9893 72.1193 37.5335C72.3208 38.1142 72.0337 38.744 71.472 38.9868L68.9194 40.091L65.4719 41.5807L51.7343 47.5206L45.6644 50.1431C44.5443 50.4778 43.3275 50.2493 42.4041 49.5291C41.2571 48.6343 40.7573 47.1303 41.1413 45.7278C41.449 44.5966 42.2883 43.6844 43.3877 43.283L57.5536 39.918L48.8945 40.8636L44.5538 38.9868C43.9922 38.744 43.705 38.1142 43.9065 37.5335C44.0953 36.9893 44.6601 36.6625 45.2249 36.772L45.3423 36.799L55.6752 39.2533L58.0137 39.8086ZM44.2286 45.0171C59.7287 40.5241 67.4788 38.2776 67.4788 38.2776C67.4788 38.2776 59.6367 40.2687 43.9525 44.2508C43.2989 44.5094 42.8134 45.0694 42.6484 45.7516C42.4834 46.4338 42.6611 47.1541 43.1244 47.6824C42.7135 46.6416 43.2021 45.4629 44.2286 45.0171ZM59.4701 6.3714C61.5262 11.2277 63.5522 16.6408 65.5449 22.6077C64.4169 16.901 62.3655 11.4165 59.4701 6.3714ZM46.7115 23.3803C45.2043 25.9219 44.1556 29.3107 43.5638 33.5419C43.3973 29.8913 44.511 26.2979 46.7115 23.3803ZM74.3103 32.4757C74.3103 27.4862 72.0686 23.0218 68.5386 20.0328C68.8496 21.9858 68.7464 23.815 68.2276 25.5205C67.7612 23.2724 67.0885 20.8927 66.2096 18.3876C64.282 12.8808 61.3628 6.75216 57.4505 0C57.3918 6.40313 56.0623 12.0098 53.4636 16.8217C52.4499 18.6954 51.2457 20.45 49.848 22.0826C50.205 20.6325 50.4889 19.2395 50.6968 17.9085C51.2695 14.242 51.2727 11.0278 50.7079 8.2641C50.0352 12.7444 47.9902 17.7435 44.5713 23.2582C44.3539 23.6088 44.1302 23.961 43.9034 24.3148C42.512 26.7151 41.7156 29.5026 41.7156 32.4742C41.7156 34.5398 42.0995 36.515 42.8007 38.3331C43.2862 39.5928 43.924 40.7763 44.6887 41.8615L44.0176 42.0217L43.0816 42.2438C41.641 42.7468 40.5114 43.9319 40.0989 45.4422C39.6023 47.2699 40.2481 49.2149 41.741 50.381C42.9737 51.344 44.5856 51.6169 46.0404 51.16L46.9272 50.7745L53.2193 48.0552C54.7344 48.5216 56.3447 48.7723 58.0153 48.7723C58.853 48.7723 59.6748 48.7089 60.4792 48.5883L65.4116 50.8792L61.6912 48.3566L58.0915 45.9166L62.8113 48.0552L69.1018 50.7761L69.9887 51.16C71.4435 51.6169 73.0554 51.344 74.2897 50.381C75.781 49.2149 76.4283 47.2699 75.9301 45.4422C75.5176 43.9319 74.388 42.7468 72.9475 42.2438L72.0115 42.0217L71.3404 41.8615C72.113 40.7668 72.746 39.5833 73.2283 38.3331C73.9248 36.5166 74.3103 34.5414 74.3103 32.4757Z" fill="#DF5457"/>
</g>
</svg>